<?xml version="1.0" encoding="UTF-8"?>
<!DOCTYPE svg PUBLIC "-//W3C//DTD SVG 1.1//EN" "http://www.w3.org/Graphics/SVG/1.1/DTD/svg11.dtd">
<!-- Creator: CorelDRAW X6 -->
<svg xmlns="http://www.w3.org/2000/svg" xml:space="preserve" width="70mm" height="70mm" version="1.1" style="shape-rendering:geometricPrecision; text-rendering:geometricPrecision; image-rendering:optimizeQuality; fill-rule:evenodd; clip-rule:evenodd"
viewBox="0 0 852 852"
 xmlns:xlink="http://www.w3.org/1999/xlink">
 <defs>
  <style type="text/css">
   <![CDATA[
    .fil1 {fill:none}
    .fil0 {fill:#0E3CC7;fill-rule:nonzero}
   ]]>
  </style>
 </defs>
 <g id="Слой_x0020_1">
  <metadata id="CorelCorpID_0Corel-Layer"/>
  <path class="fil0" d="M496 365l0 0 0 0 0 -1 0 0 0 0 0 -1 0 0 0 0 0 0 0 0 0 0 0 0 0 0 0 0 0 0 0 0 0 0 0 0 0 0 0 0 0 0 0 0 0 0 0 0 0 0 0 0 0 0 0 0 0 0 0 0 0 0 0 0 0 0 0 0 0 0 0 0 0 0 0 0 0 0 0 0 0 0 0 0 0 0 0 0 0 0 0 0 0 0 -1 -1 0 0 -1 -1 0 0 -1 -1c-25,-19 -107,-40 -108,-36 -4,1 19,83 39,107l1 1 0 0 1 1 0 0 1 1 0 0 0 0 0 0 0 0 0 0 0 0 0 0 0 0 0 0 0 0 0 0 0 0 0 0 0 0 0 0 0 0 0 0 0 0 0 0 0 0 0 0 0 0 0 0 0 0 0 0 0 0 0 0 0 0 0 0 0 0 0 0 1 0 0 0 0 0 0 0 0 0 0 0 0 0 0 0 0 0 0 0 1 0 0 0 0 0 1 0 0 0 0 0c4,2 8,4 12,5l0 0 0 0 0 0c1,0 1,0 2,1l0 0 1 0 0 0 1 0 0 0 0 0 1 0 0 0 1 0 1 0c2,0 5,0 7,0l0 0 1 0 0 0 1 0 0 0 1 0 1 0 0 0 1 0 1 0 0 0 1 0 0 0 1 0 0 0 1 0c6,-1 11,-4 17,-7l0 0c1,0 1,-1 2,-1l0 0 1 -1 1 -1 0 0 1 -1 1 -1 0 0 0 0 0 0 1 -1 0 0 1 -1 0 0 0 0 1 -1 0 0 1 -1 0 0 0 0 1 -1 0 0 1 -1 0 0 0 0 0 0 1 -1 1 -1 0 0 1 -1 1 -1 0 0c0,-1 1,-1 1,-2l0 0c3,-5 6,-11 7,-17l0 -1 0 0 0 -1 0 0 0 -1 0 0 0 -1 0 -1 0 0 0 -1 0 -1 0 0 0 -1 0 0 0 -1 0 0c0,-2 0,-5 0,-7l0 -1 0 -1 0 0 0 -1 0 0 0 0 0 -1 0 0 0 -1 0 0c0,-1 0,-1 -1,-2l0 0 0 0 0 0c-1,-4 -3,-8 -5,-12zm-470 243l255 -340c28,9 56,14 57,12 2,-1 -7,-33 -19,-63l24 -32c3,37 18,91 21,90 3,3 63,-57 74,-86l1 -1 0 0 0 -1 0 0 0 -1 0 -1 0 0 0 0 0 0 0 0 0 0 0 0 0 -1 0 0 0 0 0 0 0 0 0 0 0 0 0 0 0 0 0 0 0 0 0 0 0 0 0 0 0 0 0 0 0 0 0 0 0 0 0 0 0 0 0 0 0 0 0 0 0 -1 0 0 0 0 0 0 0 0 0 0 0 0 0 0 0 0 0 0 0 -1 0 0 0 0 0 -1 0 0 0 0c0,-4 0,-9 -2,-13l0 0 0 0 0 0 0 0 0 0 0 0 0 0 0 0 0 0 0 0 0 0 0 0 0 0 0 0 0 0 0 -1 0 0 0 0 0 0 0 0 0 0 0 0 0 0 0 0 0 0 0 0 0 0 0 0 0 0 0 0 0 0 0 0 0 0 0 0 0 0 0 0 0 0 0 0 0 0 0 0 0 0 0 0 0 0 0 0 0 0 0 0 0 0 0 0 0 0 0 0 0 0 0 0 0 0 0 0 0 0 0 0 0 0 0 0 0 -1 0 0 0 -1 0 0 0 0 0 -1 0 0 0 -1 0 -1c-1,-2 -2,-4 -3,-6l0 0 -1 -1 0 0 -1 -1 0 0 -1 -1 0 -1 0 0 0 0 0 -1 0 0 -1 -1 0 0 -1 -1 0 0 -1 -1c-4,-4 -9,-8 -14,-11l0 0c-1,0 -1,-1 -2,-1l0 0 -1 0 -1 0 0 0 -1 0 -1 0 0 0 0 0 0 0 -1 0 0 0 -1 0 0 0 0 0 -1 0 0 0 -1 0 0 0 0 0 -1 0 0 0 -1 0 0 0 0 0 0 0 -1 0 -1 0 0 0 -1 0 -1 0 0 0c-1,0 -1,0 -2,0l0 0c-1,0 -3,0 -4,0l38 -51 403 537 -805 0zm465 -389l0 0 0 0 -1 0 0 0 0 0 -1 0 0 0 0 0 0 0 0 0 0 0 0 0 0 0 0 0 0 0 -1 0 0 0 0 0 0 0 0 0 0 0 0 0 0 0 0 0 0 0 0 0 0 0 0 0 0 0 0 0 0 0 0 0 0 0 0 0 0 0 0 0 0 0 0 0 0 0 -1 0 0 0 0 0 0 0 0 0 0 0 0 0 -1 0 -1 0 0 0 -1 0 0 0 -1 0c-30,9 -95,63 -93,66 -1,4 78,33 109,32l1 0 0 0 1 0 0 0 1 0 1 0 0 0 0 0 0 0 0 0 0 0 0 0 1 0 0 0 0 0 0 0 0 0 0 0 0 0 0 0 0 0 0 0 0 0 0 0 0 0 0 0 0 0 0 0 0 0 0 0 0 0 0 0 0 0 0 0 0 0 0 0 1 0 0 0 0 0 0 0 0 0 0 0 0 0 0 0 0 0 0 0 1 0 0 0 0 0 1 0 0 0 0 0c4,-2 8,-4 11,-7l0 0 0 0 0 0 0 0 0 0 0 0 0 0 0 0 0 0 0 0 0 0 0 0 0 0 0 0c0,0 1,-1 1,-1l0 0 0 0 0 0 0 0 0 0 0 0 0 0 0 0 0 0 0 0 0 0 0 0 0 0 0 0 0 0 0 0 0 0 0 0 0 0 0 0 0 0 0 0 0 0 0 0 0 0 0 0 0 0 0 0 1 -1 0 0 1 -1 0 0 0 0 1 -1 0 0 0 0 0 0c2,-2 3,-4 4,-6l0 0 1 -1 0 0 1 -1 0 0 1 -1 0 -1 0 0 0 0 0 -1 0 0 0 -1 0 0 0 -1 0 0 0 -1c2,-5 4,-11 4,-18l0 0c0,-1 0,-1 0,-2l0 0 0 -1 0 -1 0 0 0 -1 0 -1 0 0 0 0 0 0 0 -1 0 0 0 -1 0 0 0 0 0 -1 0 0 0 -1 0 0 0 0 0 -1 0 0 0 -1 0 0 0 0 0 0 0 -1 0 -1 0 0 0 -1 0 -1 0 0c0,-1 0,-1 -1,-2l0 0c-2,-6 -6,-11 -10,-15l-1 -1 0 0 -1 -1 0 0 -1 -1 0 0 0 0 0 0 0 0 -1 0 -1 -1 0 0 -1 -1 0 0 -1 -1 0 0c-2,-1 -4,-3 -6,-4l0 0 -1 0 0 0 -1 0 0 0 0 0 -1 0 0 0 -1 0 0 0c-1,0 -1,-1 -2,-1l0 0 0 0 0 0c-4,-1 -8,-2 -13,-3zm154 247l-34 0 -34 51 33 61 38 0 -37 -63 34 -49zm-69 -48l-33 4 0 157 33 0 0 -160zm-86 45c-34,0 -55,25 -55,61 0,35 21,59 56,59 15,0 27,-5 38,-13l-15 -21c-8,5 -14,8 -22,8 -13,0 -22,-8 -22,-33 0,-25 8,-35 23,-35 8,0 14,3 21,8l14 -20c-11,-9 -23,-14 -38,-14zm-126 95c-8,0 -13,-5 -13,-14 0,-11 7,-16 23,-16l8 0 0 20c-4,7 -10,11 -18,11zm50 -12l0 -43c0,-26 -14,-40 -46,-40 -13,0 -28,3 -42,8l8 22c11,-4 22,-6 29,-6 14,0 19,4 19,17l0 5 -11 0c-34,0 -53,13 -53,38 0,20 14,35 37,35 13,0 26,-4 34,-17 5,11 14,15 27,16l7 -22c-5,-2 -8,-5 -8,-14zm-157 -41l-13 0 0 -48 12 0c17,0 26,7 26,23 0,18 -10,25 -25,25zm0 -73l-47 0 0 146 35 0 0 -49 16 0c34,0 58,-16 58,-50 0,-32 -23,-48 -61,-48z"/>
  <path class="fil0" d="M624 739c-9,0 -17,-5 -22,-12l0 -48c5,-8 13,-15 24,-15 15,0 22,12 22,37 0,25 -8,37 -24,37zm5 -87c-11,0 -21,6 -28,15l-1 -13 -13 0 0 133 15 -2 0 -45c6,7 15,11 25,11 24,0 37,-21 37,-50 0,-30 -10,-50 -35,-50zm-78 2l-15 0 0 68c-6,10 -14,17 -25,17 -11,0 -16,-5 -16,-19l0 -66 -15 0 0 68c0,19 10,29 27,29 14,0 23,-6 30,-18l1 15 13 0 0 -95zm-140 10c16,0 25,12 25,37 0,25 -9,38 -26,38 -16,0 -25,-12 -25,-37 0,-25 9,-38 26,-38zm0 -12c-27,0 -42,20 -42,50 0,30 15,50 42,50 27,0 42,-20 42,-50 0,-30 -15,-50 -42,-50zm-59 0c-12,0 -21,7 -26,22l-1 -20 -13 0 0 95 15 0 0 -56c4,-18 11,-27 23,-27 3,0 5,0 8,1l3 -15c-3,-1 -6,-1 -9,-1zm-108 -29c-28,0 -53,22 -53,64 0,43 20,65 52,65 15,0 28,-4 40,-11l0 -60 -40 0 2 13 23 0 0 39c-7,4 -16,6 -24,6 -22,0 -35,-15 -35,-52 0,-37 18,-51 37,-51 11,0 19,3 27,10l9 -10c-10,-9 -21,-13 -37,-13z"/>
  <rect class="fil1" width="852" height="852"/>
 </g>
</svg>
