<svg xmlns="http://www.w3.org/2000/svg" width="70mm" height="70mm" viewBox="0 0 852 852" shape-rendering="geometricPrecision" text-rendering="geometricPrecision" image-rendering="optimizeQuality" fill-rule="evenodd" clip-rule="evenodd"><g id="Слой_x0020_1"><path d="M496 365v-2l-1-1-1-1-1-1c-25-19-107-40-108-36-4 1 19 83 39 107l1 1 1 1 1 1h3c4 2 8 4 12 5 1 0 1 0 2 1h21c6-1 11-4 17-7 1 0 1-1 2-1l1-1 1-1 1-1 1-1 1-1 1-1 1-1 1-1 1-1 1-1 1-1 1-1 1-1 1-1c0-1 1-1 1-2 3-5 6-11 7-17v-21c0-1 0-1-1-2-1-4-3-8-5-12zM26 608l255-340c28 9 56 14 57 12 2-1-7-33-19-63l24-32c3 37 18 91 21 90 3 3 63-57 74-86l1-1v-7c0-4 0-9-2-13v-6l-3-6-1-1-1-1-1-1v-2l-1-1-1-1-1-1c-4-4-9-8-14-11-1 0-1-1-2-1h-20l38-51 403 537H28zm465-389h-8c-30 9-95 63-93 66-1 4 78 33 109 32h8c4-2 8-4 11-7l1-1 1-1 1-1 1-1c2-2 3-4 4-6l1-1 1-1 1-1v-5c2-5 4-11 4-18v-16c0-1 0-1-1-2-2-6-6-11-10-15l-1-1-1-1-1-1h-1l-1-1-1-1-1-1c-2-1-4-3-6-4h-4c-1 0-1-1-2-1-4-1-8-2-13-3zm154 247h-34l-34 51 33 61h38l-37-63 34-49zm-69-48l-33 4v157h33V419zm-86 45c-34 0-55 25-55 61 0 35 21 59 56 59 15 0 27-5 38-13l-15-21c-8 5-14 8-22 8-13 0-22-8-22-33s8-35 23-35c8 0 14 3 21 8l14-20c-11-9-23-14-38-14zm-126 95c-8 0-13-5-13-14 0-11 7-16 23-16h8v20c-4 7-10 11-18 11zm50-12v-43c0-26-14-40-46-40-13 0-28 3-42 8l8 22c11-4 22-6 29-6 14 0 19 4 19 17v5h-11c-34 0-53 13-53 38 0 20 14 35 37 35 13 0 26-4 34-17 5 11 14 15 27 16l7-22c-5-2-8-5-8-14zm-157-41h-13v-48h12c17 0 26 7 26 23 0 18-10 25-25 25zm0-73h-47v146h35v-49h16c34 0 58-16 58-50 0-32-23-48-61-48zm367 307c-9 0-17-5-22-12v-48c5-8 13-15 24-15 15 0 22 12 22 37s-8 37-24 37zm5-87c-11 0-21 6-28 15l-1-13h-13v133l15-2v-45c6 7 15 11 25 11 24 0 37-21 37-50 0-30-10-50-35-50zm-78 2h-15v68c-6 10-14 17-25 17s-16-5-16-19v-66h-15v68c0 19 10 29 27 29 14 0 23-6 30-18l1 15h13v-95zm-140 10c16 0 25 12 25 37s-9 38-26 38c-16 0-25-12-25-37s9-38 26-38zm0-12c-27 0-42 20-42 50s15 50 42 50 42-20 42-50-15-50-42-50zm-59 0c-12 0-21 7-26 22l-1-20h-13v95h15v-56c4-18 11-27 23-27 3 0 5 0 8 1l3-15c-3-1-6-1-9-1zm-108-29c-28 0-53 22-53 64 0 43 20 65 52 65 15 0 28-4 40-11v-60h-40l2 13h23v39c-7 4-16 6-24 6-22 0-35-15-35-52s18-51 37-51c11 0 19 3 27 10l9-10c-10-9-21-13-37-13z" fill="#0e3cc7" fill-rule="nonzero"/><path fill="none" d="M0 0h852v852H0z"/></g></svg>