<svg width="149" height="145" viewBox="0 0 149 145" fill="none" xmlns="http://www.w3.org/2000/svg">
<path d="M77.1667 11.1459L65.7381 18.0054M65.7381 25.627L77.1667 33.2486M104.595 54.2081C103.985 55.3113 101.993 54.8845 100.931 54.2502L98.7781 52.7875C97.7164 52.1532 97.4499 50.9653 98.0603 49.8621L103.802 38.892C104.413 37.7888 106.343 37.5263 107.391 38.1606L108.827 38.892C109.995 39.5952 111 41.9571 110.31 43.1568M117.548 43.1568C114.805 44.3762 111.817 44.2271 110.667 44.0001C110.555 43.9143 109.983 43.8715 109.913 44.0001L104.637 53.8501C104.581 53.9359 104.581 54.5364 104.637 54.6078C105.25 55.5079 108.839 61.0985 109.159 61.4271L118.957 67.4887C119.194 67.5744 122.687 69.2888 124.987 67.4887L130.262 59.154C130.36 58.8683 132.024 57.2568 128.755 54.6078C126.162 50.2827 120.29 41.9373 117.548 43.1568ZM117.548 43.1568L125.406 42.7724C125.763 42.7549 126.111 42.8711 126.416 43.0586C129.747 45.1112 133.844 42.8948 134.69 42.3945L141.167 54.0002L135.083 60.0027L125.958 66.0053M89.7361 73.8453C97.551 81.9755 97.4208 95.2546 89.4481 103.23C81.4754 111.205 68.9973 110.539 61.1825 102.409C53.3676 94.2783 53.4871 82.0876 61.4598 74.1121C69.4326 66.1367 81.9213 65.715 89.7361 73.8453ZM108.405 143H42.881C42.881 124.347 57.3725 109.465 75.6429 109.465C93.9132 109.465 108.405 124.347 108.405 143ZM87.8333 8.0973C87.8333 11.4941 85.0679 14.1946 81.7381 14.1946C78.4083 14.1946 76.4048 11.4941 76.4048 8.0973C76.4048 4.70045 78.4083 2 81.7381 2C85.0679 2 87.8333 4.70045 87.8333 8.0973ZM87.8333 37.0595C87.8333 40.4563 85.0679 43.1568 81.7381 43.1568C78.4083 43.1568 76.4048 40.4563 76.4048 37.0595C76.4048 33.6626 78.4083 30.9622 81.7381 30.9622C85.0679 30.9622 87.8333 33.6626 87.8333 37.0595ZM65.7381 21.8162C65.7381 25.2131 62.9726 27.9135 59.6429 27.9135C56.3131 27.9135 54.3095 25.2131 54.3095 21.8162C54.3095 18.4194 56.3131 15.7189 59.6429 15.7189C62.9726 15.7189 65.7381 18.4194 65.7381 21.8162ZM36.0238 36.2973V39.3459H16.2143C13.1575 39.3459 10.119 41.5483 10.119 44.6811V60.6865H7.83333C4.76245 60.6865 2.5 58.4841 2.5 55.3514V36.2973C2.5 33.1645 4.76245 30.9622 7.83333 30.9622H30.6905C33.7614 30.9622 36.0238 33.1645 36.0238 36.2973ZM43.6429 44.6498V61.3189C43.6429 64.419 41.3804 67.3804 38.3095 67.3804H27.6429L26.881 74.1996C26.8246 74.5282 26.3726 74.4139 26.119 74.1996L18.5 68.1381L17.7381 67.3804H15.4524C12.3956 67.3804 10.119 64.419 10.119 61.3189V44.6498C10.119 41.5354 12.3956 39.3459 15.4524 39.3459H38.3095C41.3804 39.3459 43.6429 41.5354 43.6429 44.6498ZM145.459 52.7623L143.304 54.2225C142.52 54.6906 141.839 54.7319 141.148 54.2225C140.896 54.0435 140.589 53.7815 140.43 53.4924L134.682 43.2708V42.5407C134.018 41.3293 134.232 39.5922 135.401 38.8902L137.556 38.1601C138.605 37.5268 139.819 37.7889 140.43 38.8902L146.177 49.8418C146.789 50.9431 146.522 52.129 145.459 52.7623Z" stroke="#343434" stroke-width="4" stroke-miterlimit="10" stroke-linecap="round"/>
</svg>
