<svg width="149" height="145" fill="none" xmlns="http://www.w3.org/2000/svg"><path d="M77.167 11.146l-11.429 6.86m0 7.621l11.429 7.622m27.428 20.96c-.61 1.102-2.602.675-3.664.041l-2.153-1.462c-1.062-.635-1.328-1.823-.718-2.926l5.742-10.97c.611-1.103 2.541-1.366 3.589-.731l1.436.731c1.168.703 2.173 3.065 1.483 4.265m7.238 0c-2.743 1.22-5.731 1.07-6.881.843-.112-.086-.684-.129-.754 0l-5.276 9.85c-.056.086-.056.686 0 .758.613.9 4.202 6.49 4.522 6.82l9.798 6.06c.237.086 3.73 1.8 6.03 0l5.275-8.334c.098-.286 1.762-1.897-1.507-4.546-2.593-4.325-8.465-12.67-11.207-11.451zm0 0l7.858-.385c.357-.017.705.1 1.01.287 3.331 2.052 7.428-.164 8.274-.664L141.167 54l-6.084 6.003-9.125 6.002m-36.222 7.84c7.815 8.13 7.685 21.41-.288 29.385-7.973 7.975-20.45 7.309-28.265-.821-7.815-8.13-7.696-20.321.277-28.297 7.973-7.975 20.461-8.397 28.276-.267zM108.405 143H42.881c0-18.653 14.492-33.535 32.762-33.535s32.762 14.882 32.762 33.535zM87.833 8.097c0 3.397-2.765 6.098-6.095 6.098-3.33 0-5.333-2.7-5.333-6.098C76.405 4.7 78.408 2 81.738 2s6.095 2.7 6.095 6.097zm0 28.962c0 3.397-2.765 6.098-6.095 6.098-3.33 0-5.333-2.7-5.333-6.097 0-3.397 2.003-6.098 5.333-6.098s6.095 2.7 6.095 6.098zM65.738 21.816c0 3.397-2.765 6.098-6.095 6.098-3.33 0-5.334-2.7-5.334-6.098 0-3.397 2.004-6.097 5.334-6.097 3.33 0 6.095 2.7 6.095 6.097zM36.024 36.297v3.049h-19.81c-3.056 0-6.095 2.202-6.095 5.335v16.006H7.833c-3.07 0-5.333-2.203-5.333-5.336V36.297c0-3.133 2.262-5.335 5.333-5.335h22.858c3.07 0 5.333 2.202 5.333 5.335zm7.619 8.353v16.669c0 3.1-2.263 6.061-5.334 6.061H27.643l-.762 6.82c-.056.328-.508.214-.762 0L18.5 68.138l-.762-.758h-2.286c-3.056 0-5.333-2.961-5.333-6.061v-16.67c0-3.114 2.277-5.303 5.333-5.303H38.31c3.07 0 5.333 2.19 5.333 5.304zm101.816 8.112l-2.155 1.46c-.784.469-1.465.51-2.156 0-.252-.178-.559-.44-.718-.73l-5.748-10.221v-.73c-.664-1.212-.45-2.949.719-3.65l2.155-.73c1.049-.634 2.263-.372 2.874.73l5.747 10.95c.612 1.102.345 2.288-.718 2.921z" stroke="#343434" stroke-width="4" stroke-miterlimit="10" stroke-linecap="round"/></svg>